<svg version="1.1" id="Layer_1" xmlns="http://www.w3.org/2000/svg" xmlns:xlink="http://www.w3.org/1999/xlink" x="0px" y="0px"
	 width="100%" viewBox="0 0 1024 1024" enable-background="new 0 0 1024 1024" xml:space="preserve">
<path fill="#FEFFFF" opacity="1.000000" stroke="none" 
	d="
M476.000000,1025.000000 
	C317.333344,1025.000000 159.166672,1025.000000 1.000000,1025.000000 
	C1.000000,683.666687 1.000000,342.333344 1.000000,1.000000 
	C342.333344,1.000000 683.666687,1.000000 1025.000000,1.000000 
	C1025.000000,342.333344 1025.000000,683.666687 1025.000000,1025.000000 
	C842.166687,1025.000000 659.333313,1025.000000 476.000000,1025.000000 
M675.500000,248.173996 
	C655.338196,248.179581 635.176331,248.186920 615.014526,248.190430 
	C516.369751,248.207535 417.723907,247.970840 319.080688,248.370575 
	C282.158722,248.520187 255.415756,266.012146 239.520889,299.513153 
	C233.832550,311.502289 232.465302,324.395996 232.458542,337.495758 
	C232.401703,447.637817 232.321289,557.779846 232.315170,667.921936 
	C232.314575,678.746460 232.174591,689.622803 233.119568,700.385498 
	C235.600769,728.644897 249.221497,750.330811 273.390869,765.183594 
	C287.930206,774.118408 303.899414,777.901123 320.958893,777.890503 
	C449.263733,777.810181 577.568665,777.817200 705.873535,777.844482 
	C724.377441,777.848389 741.546387,773.232727 756.708069,762.618896 
	C781.312073,745.395020 793.099426,721.231689 793.228516,691.432434 
	C793.418335,647.609741 793.285339,603.785645 793.298523,559.962158 
	C793.321045,484.978943 793.359192,409.995697 793.373474,335.012482 
	C793.382263,288.769867 761.963684,253.416443 715.949829,248.805115 
	C702.909790,247.498306 689.655823,248.325394 675.500000,248.173996 
M592.720520,838.998962 
	C588.596985,838.665955 584.470154,838.007263 580.350403,838.049011 
	C521.667969,838.643799 462.985046,839.233154 404.305786,840.070190 
	C389.553223,840.280640 374.798920,841.141418 360.070862,842.095642 
	C343.561096,843.165344 327.074280,844.611938 310.588837,846.026489 
	C300.450592,846.896545 290.316833,847.872742 280.213379,849.073486 
	C274.312836,849.774780 268.492035,851.121460 262.607300,851.987000 
	C247.630127,854.189819 233.212296,857.294617 220.865601,867.275208 
	C209.549911,876.422241 213.865417,891.592590 223.915054,895.961487 
	C225.892365,896.821106 227.838455,897.775818 229.869400,898.484985 
	C239.992508,902.019714 249.907822,906.678772 260.331116,908.701965 
	C276.440277,911.828979 292.873291,913.412170 309.222534,915.144104 
	C327.308044,917.059814 345.444519,918.525635 363.577637,919.946960 
	C371.930298,920.601624 380.335388,920.556946 388.703400,921.053406 
	C403.745636,921.946045 418.765015,923.498596 433.817047,923.891479 
	C461.095093,924.603333 488.389435,924.798035 515.678345,924.935974 
	C526.796387,924.992188 537.917053,924.295959 549.038330,924.016235 
	C563.993103,923.639954 578.957214,923.530518 593.903625,922.952820 
	C614.780518,922.145874 635.654785,921.183167 656.511597,919.967834 
	C675.350708,918.870117 694.196045,917.673645 712.979553,915.896301 
	C726.783203,914.590210 740.565063,912.692383 754.218750,910.278625 
	C765.091675,908.356445 775.953552,905.868774 786.452637,902.489563 
	C795.263000,899.653809 804.914612,897.015259 809.532410,887.619690 
	C812.732056,881.109680 812.906006,872.675598 807.317932,868.010986 
	C799.519165,861.501099 790.511353,857.968872 780.881592,856.095947 
	C768.245361,853.638306 755.493469,851.688232 742.727234,850.005981 
	C723.398621,847.459045 704.051147,844.939697 684.643616,843.143066 
	C667.659363,841.570618 650.589172,840.839844 633.542297,840.058289 
	C620.265625,839.449585 606.966248,839.334473 592.720520,838.998962 
z"/>
<path fill="#1B212E" opacity="1.000000" stroke="none" 
	d="
M676.000000,248.173920 
	C689.655823,248.325394 702.909790,247.498306 715.949829,248.805115 
	C761.963684,253.416443 793.382263,288.769867 793.373474,335.012482 
	C793.359192,409.995697 793.321045,484.978943 793.298523,559.962158 
	C793.285339,603.785645 793.418335,647.609741 793.228516,691.432434 
	C793.099426,721.231689 781.312073,745.395020 756.708069,762.618896 
	C741.546387,773.232727 724.377441,777.848389 705.873535,777.844482 
	C577.568665,777.817200 449.263733,777.810181 320.958893,777.890503 
	C303.899414,777.901123 287.930206,774.118408 273.390869,765.183594 
	C249.221497,750.330811 235.600769,728.644897 233.119568,700.385498 
	C232.174591,689.622803 232.314575,678.746460 232.315170,667.921936 
	C232.321289,557.779846 232.401703,447.637817 232.458542,337.495758 
	C232.465302,324.395996 233.832550,311.502289 239.520889,299.513153 
	C255.415756,266.012146 282.158722,248.520187 319.080688,248.370575 
	C417.723907,247.970840 516.369751,248.207535 615.014526,248.190430 
	C635.176331,248.186920 655.338196,248.179581 676.000000,248.173920 
M506.689575,431.554260 
	C503.334778,427.856476 500.250519,423.862732 496.581512,420.508606 
	C471.807770,397.861206 442.388336,387.616455 409.004730,387.805573 
	C376.009827,387.992493 343.013336,387.899963 310.017548,387.944031 
	C308.407074,387.946198 306.796783,388.083405 305.244873,388.154999 
	C305.244873,473.739502 305.244873,558.952148 305.244873,644.219299 
	C339.982422,644.219299 374.307465,644.549988 408.618958,644.013733 
	C418.658936,643.856873 428.695679,641.425964 438.652832,639.596130 
	C440.931946,639.177246 443.826050,637.419617 444.828369,635.456726 
	C455.947418,613.681580 466.745544,591.742615 477.637939,569.851746 
	C503.935303,517.000854 530.243591,464.155396 556.528870,411.298523 
	C560.331970,403.650940 564.032471,395.952332 567.824402,388.187317 
	C547.972595,388.187317 528.570740,388.187317 508.639130,388.187317 
	C508.639130,403.046844 508.639130,417.520081 508.162781,431.996490 
	C507.845276,431.997711 507.527771,431.998291 506.689575,431.554260 
M589.342651,496.900818 
	C564.789917,545.854065 540.237244,594.807312 515.547729,644.033325 
	C533.643188,644.033325 551.042175,644.033325 568.977661,644.033325 
	C568.977661,610.658264 568.977661,577.658264 568.977661,543.487793 
	C571.421448,546.479919 573.159607,548.440369 574.714355,550.536926 
	C596.531433,579.957947 618.366089,609.366150 640.068176,638.871887 
	C642.820129,642.613464 645.582092,644.485352 650.642212,644.389099 
	C671.294373,643.996094 691.958374,644.223633 712.617981,644.222656 
	C714.013916,644.222595 715.409851,644.222717 717.831848,644.222717 
	C686.762939,601.775024 656.334106,560.201843 625.736023,518.397461 
	C655.961121,474.935638 686.109558,431.584106 716.595886,387.746582 
	C692.975525,387.746582 670.160034,387.679871 647.347107,387.891113 
	C645.763184,387.905731 643.501831,389.633209 642.726929,391.159088 
	C624.961243,426.142761 607.358704,461.209259 589.342651,496.900818 
M614.152954,415.660309 
	C626.668091,390.703400 639.183167,365.746490 652.027771,340.132568 
	C640.012085,340.132568 628.868164,340.723236 617.823608,339.929871 
	C610.154724,339.378937 606.738708,342.048798 603.401123,348.921021 
	C582.748596,391.445099 561.518188,433.689301 540.374146,475.973694 
	C507.090576,542.535034 473.721863,609.053894 440.409393,675.600769 
	C439.931671,676.555115 439.715240,677.640259 439.266357,678.998901 
	C453.034668,678.998901 466.359528,679.097290 479.678406,678.859436 
	C481.144897,678.833252 483.145874,677.191650 483.923920,675.766785 
	C486.872375,670.367493 489.373016,664.725769 492.123962,659.216003 
	C518.002258,607.385254 543.859558,555.543823 569.803040,503.745667 
	C584.413635,474.574493 599.174438,445.478577 614.152954,415.660309 
M710.403992,515.176880 
	C710.461853,516.671997 711.146423,518.605713 710.463074,519.582092 
	C708.181702,522.841858 705.406128,525.755066 702.827454,528.807495 
	C695.007751,538.064270 695.099243,539.154175 704.339600,547.075256 
	C704.592346,547.291992 704.858887,547.493958 705.100403,547.722473 
	C708.032166,550.497131 710.743835,550.000671 713.256775,547.141357 
	C720.731323,538.636475 728.334717,530.236633 735.518677,521.492554 
	C736.719788,520.030640 737.149353,516.158447 736.115234,514.920288 
	C728.545288,505.856903 720.665588,497.031891 712.460266,488.540833 
	C711.197388,487.233948 707.337219,487.141815 705.434326,488.058105 
	C702.714111,489.367828 700.533447,491.981842 698.415588,494.306030 
	C696.389526,496.529572 696.255371,498.943756 698.497314,501.413116 
	C702.413757,505.726837 706.149048,510.205078 710.403992,515.176880 
z"/>
<path fill="#F4F4F4" opacity="1.000000" stroke="none" 
	d="
M593.198730,838.999512 
	C606.966248,839.334473 620.265625,839.449585 633.542297,840.058289 
	C650.589172,840.839844 667.659363,841.570618 684.643616,843.143066 
	C704.051147,844.939697 723.398621,847.459045 742.727234,850.005981 
	C755.493469,851.688232 768.245361,853.638306 780.881592,856.095947 
	C790.511353,857.968872 799.519165,861.501099 807.317932,868.010986 
	C812.906006,872.675598 812.732056,881.109680 809.532410,887.619690 
	C804.914612,897.015259 795.263000,899.653809 786.452637,902.489563 
	C775.953552,905.868774 765.091675,908.356445 754.218750,910.278625 
	C740.565063,912.692383 726.783203,914.590210 712.979553,915.896301 
	C694.196045,917.673645 675.350708,918.870117 656.511597,919.967834 
	C635.654785,921.183167 614.780518,922.145874 593.903625,922.952820 
	C578.957214,923.530518 563.993103,923.639954 549.038330,924.016235 
	C537.917053,924.295959 526.796387,924.992188 515.678345,924.935974 
	C488.389435,924.798035 461.095093,924.603333 433.817047,923.891479 
	C418.765015,923.498596 403.745636,921.946045 388.703400,921.053406 
	C380.335388,920.556946 371.930298,920.601624 363.577637,919.946960 
	C345.444519,918.525635 327.308044,917.059814 309.222534,915.144104 
	C292.873291,913.412170 276.440277,911.828979 260.331116,908.701965 
	C249.907822,906.678772 239.992508,902.019714 229.869400,898.484985 
	C227.838455,897.775818 225.892365,896.821106 223.915054,895.961487 
	C213.865417,891.592590 209.549911,876.422241 220.865601,867.275208 
	C233.212296,857.294617 247.630127,854.189819 262.607300,851.987000 
	C268.492035,851.121460 274.312836,849.774780 280.213379,849.073486 
	C290.316833,847.872742 300.450592,846.896545 310.588837,846.026489 
	C327.074280,844.611938 343.561096,843.165344 360.070862,842.095642 
	C374.798920,841.141418 389.553223,840.280640 404.305786,840.070190 
	C462.985046,839.233154 521.667969,838.643799 580.350403,838.049011 
	C584.470154,838.007263 588.596985,838.665955 593.198730,838.999512 
M531.500000,915.000000 
	C545.789673,914.668091 560.084229,914.472961 574.367615,913.964478 
	C587.787781,913.486755 601.194641,912.643250 614.610168,912.023071 
	C636.978577,910.988953 659.362610,910.228455 681.713074,908.899048 
	C691.922852,908.291748 702.089478,906.757507 712.236816,905.361206 
	C721.392639,904.101379 730.609436,902.947571 739.594116,900.862854 
	C752.086487,897.964050 765.285950,896.547913 775.685181,887.983398 
	C778.092834,886.000610 780.465515,882.554810 780.657349,879.637756 
	C780.939636,875.345215 778.523682,871.872437 773.918884,869.703735 
	C763.553589,864.821899 752.582153,862.713562 741.423889,861.074280 
	C732.273682,859.729980 723.159119,858.059875 713.970581,857.079285 
	C701.633911,855.762817 689.248169,854.876160 676.871033,853.976135 
	C657.604248,852.575134 638.339172,851.076782 619.049194,850.096008 
	C608.488586,849.559082 597.876343,850.127869 587.290894,849.967712 
	C573.751099,849.762878 560.213501,849.369934 546.677856,848.962341 
	C542.550903,848.838074 538.433533,848.165710 534.311646,848.165100 
	C529.746033,848.164490 525.177063,848.920166 520.615540,848.863098 
	C509.576965,848.724976 498.534454,847.896851 487.507080,848.095703 
	C470.920532,848.394775 454.349030,849.455200 437.763672,849.931458 
	C432.231903,850.090332 426.656860,849.007019 421.136902,849.260559 
	C406.084747,849.952087 391.045685,850.970703 376.012177,852.014526 
	C358.179199,853.252808 340.313934,854.237610 322.543152,856.100281 
	C305.134705,857.925049 287.753387,860.287415 270.509491,863.275513 
	C262.793976,864.612427 255.191010,867.488464 247.995987,870.695740 
	C240.424973,874.070557 239.764328,883.957947 246.106979,888.068176 
	C257.826447,895.662781 271.276245,898.118652 284.542999,900.861389 
	C292.931000,902.595581 301.554291,903.263550 310.098755,904.153320 
	C326.538055,905.865112 342.995636,907.401733 359.447968,908.987122 
	C360.770447,909.114563 362.114166,909.005371 363.441956,909.095703 
	C382.438263,910.388062 401.428406,911.778381 420.431427,912.961914 
	C428.709015,913.477417 437.010742,913.651611 445.304657,913.848572 
	C463.369476,914.277405 481.435150,914.695312 499.502716,914.971375 
	C509.832886,915.129272 520.167419,915.000000 531.500000,915.000000 
z"/>
<path fill="#EFEEE9" opacity="1.000000" stroke="none" 
	d="
M508.639130,431.993347 
	C508.639130,417.520081 508.639130,403.046844 508.639130,388.187317 
	C528.570740,388.187317 547.972595,388.187317 567.824402,388.187317 
	C564.032471,395.952332 560.331970,403.650940 556.528870,411.298523 
	C530.243591,464.155396 503.935303,517.000854 477.637939,569.851746 
	C466.745544,591.742615 455.947418,613.681580 444.828369,635.456726 
	C443.826050,637.419617 440.931946,639.177246 438.652832,639.596130 
	C428.695679,641.425964 418.658936,643.856873 408.618958,644.013733 
	C374.307465,644.549988 339.982422,644.219299 305.244873,644.219299 
	C305.244873,558.952148 305.244873,473.739502 305.244873,388.154999 
	C306.796783,388.083405 308.407074,387.946198 310.017548,387.944031 
	C343.013336,387.899963 376.009827,387.992493 409.004730,387.805573 
	C442.388336,387.616455 471.807770,397.861206 496.581512,420.508606 
	C500.250519,423.862732 503.334778,427.856476 507.027344,432.051514 
	C507.789764,432.363617 508.214447,432.178467 508.639130,431.993347 
M364.412231,444.925110 
	C363.478271,444.442688 362.544342,443.960266 361.001221,443.163208 
	C361.001221,445.625610 361.001251,447.423187 361.001221,449.220764 
	C361.000793,467.851501 361.000061,486.482239 361.000092,505.112976 
	C361.000122,529.732178 361.012939,554.351318 360.984222,578.970520 
	C360.980988,581.738159 360.631012,584.592773 365.141083,584.791138 
	C366.130310,585.146545 367.118805,585.808594 368.108917,585.810913 
	C381.599060,585.843018 395.090454,585.872803 408.579407,585.717346 
	C418.343079,585.604858 427.791321,583.722046 436.568604,579.313904 
	C464.041809,565.516174 475.393219,542.463684 474.910492,512.527466 
	C474.388367,480.148438 453.795105,450.112457 417.960327,445.835571 
	C400.559509,443.758759 382.739563,445.193451 364.412231,444.925110 
z"/>
<path fill="#EEEEE9" opacity="1.000000" stroke="none" 
	d="
M589.534180,496.580566 
	C607.358704,461.209259 624.961243,426.142761 642.726929,391.159088 
	C643.501831,389.633209 645.763184,387.905731 647.347107,387.891113 
	C670.160034,387.679871 692.975525,387.746582 716.595886,387.746582 
	C686.109558,431.584106 655.961121,474.935638 625.736023,518.397461 
	C656.334106,560.201843 686.762939,601.775024 717.831848,644.222717 
	C715.409851,644.222717 714.013916,644.222595 712.617981,644.222656 
	C691.958374,644.223633 671.294373,643.996094 650.642212,644.389099 
	C645.582092,644.485352 642.820129,642.613464 640.068176,638.871887 
	C618.366089,609.366150 596.531433,579.957947 574.714355,550.536926 
	C573.159607,548.440369 571.421448,546.479919 568.977661,543.487793 
	C568.977661,577.658264 568.977661,610.658264 568.977661,644.033325 
	C551.042175,644.033325 533.643188,644.033325 515.547729,644.033325 
	C540.237244,594.807312 564.789917,545.854065 589.534180,496.580566 
z"/>
<path fill="#0397D6" opacity="1.000000" stroke="none" 
	d="
M614.010254,416.004517 
	C599.174438,445.478577 584.413635,474.574493 569.803040,503.745667 
	C543.859558,555.543823 518.002258,607.385254 492.123962,659.216003 
	C489.373016,664.725769 486.872375,670.367493 483.923920,675.766785 
	C483.145874,677.191650 481.144897,678.833252 479.678406,678.859436 
	C466.359528,679.097290 453.034668,678.998901 439.266357,678.998901 
	C439.715240,677.640259 439.931671,676.555115 440.409393,675.600769 
	C473.721863,609.053894 507.090576,542.535034 540.374146,475.973694 
	C561.518188,433.689301 582.748596,391.445099 603.401123,348.921021 
	C606.738708,342.048798 610.154724,339.378937 617.823608,339.929871 
	C628.868164,340.723236 640.012085,340.132568 652.027771,340.132568 
	C639.183167,365.746490 626.668091,390.703400 614.010254,416.004517 
z"/>
<path fill="#EEEEE9" opacity="1.000000" stroke="none" 
	d="
M710.182129,514.895630 
	C706.149048,510.205078 702.413757,505.726837 698.497314,501.413116 
	C696.255371,498.943756 696.389526,496.529572 698.415588,494.306030 
	C700.533447,491.981842 702.714111,489.367828 705.434326,488.058105 
	C707.337219,487.141815 711.197388,487.233948 712.460266,488.540833 
	C720.665588,497.031891 728.545288,505.856903 736.115234,514.920288 
	C737.149353,516.158447 736.719788,520.030640 735.518677,521.492554 
	C728.334717,530.236633 720.731323,538.636475 713.256775,547.141357 
	C710.743835,550.000671 708.032166,550.497131 705.100403,547.722473 
	C704.858887,547.493958 704.592346,547.291992 704.339600,547.075256 
	C695.099243,539.154175 695.007751,538.064270 702.827454,528.807495 
	C705.406128,525.755066 708.181702,522.841858 710.463074,519.582092 
	C711.146423,518.605713 710.461853,516.671997 710.182129,514.895630 
z"/>
<path fill="#1B222F" opacity="1.000000" stroke="none" 
	d="
M508.400940,431.994934 
	C508.214447,432.178467 507.789764,432.363617 507.287659,432.273499 
	C507.527771,431.998291 507.845276,431.997711 508.400940,431.994934 
z"/>
<path fill="#EAEAEB" opacity="1.000000" stroke="none" 
	d="
M531.000000,915.000000 
	C520.167419,915.000000 509.832886,915.129272 499.502716,914.971375 
	C481.435150,914.695312 463.369476,914.277405 445.304657,913.848572 
	C437.010742,913.651611 428.709015,913.477417 420.431427,912.961914 
	C401.428406,911.778381 382.438263,910.388062 363.441956,909.095703 
	C362.114166,909.005371 360.770447,909.114563 359.447968,908.987122 
	C342.995636,907.401733 326.538055,905.865112 310.098755,904.153320 
	C301.554291,903.263550 292.931000,902.595581 284.542999,900.861389 
	C271.276245,898.118652 257.826447,895.662781 246.106979,888.068176 
	C239.764328,883.957947 240.424973,874.070557 247.995987,870.695740 
	C255.191010,867.488464 262.793976,864.612427 270.509491,863.275513 
	C287.753387,860.287415 305.134705,857.925049 322.543152,856.100281 
	C340.313934,854.237610 358.179199,853.252808 376.012177,852.014526 
	C391.045685,850.970703 406.084747,849.952087 421.136902,849.260559 
	C426.656860,849.007019 432.231903,850.090332 437.763672,849.931458 
	C454.349030,849.455200 470.920532,848.394775 487.507080,848.095703 
	C498.534454,847.896851 509.576965,848.724976 520.615540,848.863098 
	C525.177063,848.920166 529.746033,848.164490 534.311646,848.165100 
	C538.433533,848.165710 542.550903,848.838074 546.677856,848.962341 
	C560.213501,849.369934 573.751099,849.762878 587.290894,849.967712 
	C597.876343,850.127869 608.488586,849.559082 619.049194,850.096008 
	C638.339172,851.076782 657.604248,852.575134 676.871033,853.976135 
	C689.248169,854.876160 701.633911,855.762817 713.970581,857.079285 
	C723.159119,858.059875 732.273682,859.729980 741.423889,861.074280 
	C752.582153,862.713562 763.553589,864.821899 773.918884,869.703735 
	C778.523682,871.872437 780.939636,875.345215 780.657349,879.637756 
	C780.465515,882.554810 778.092834,886.000610 775.685181,887.983398 
	C765.285950,896.547913 752.086487,897.964050 739.594116,900.862854 
	C730.609436,902.947571 721.392639,904.101379 712.236816,905.361206 
	C702.089478,906.757507 691.922852,908.291748 681.713074,908.899048 
	C659.362610,910.228455 636.978577,910.988953 614.610168,912.023071 
	C601.194641,912.643250 587.787781,913.486755 574.367615,913.964478 
	C560.084229,914.472961 545.789673,914.668091 531.000000,915.000000 
M358.363403,903.998718 
	C375.355377,905.323181 392.328217,907.048584 409.344635,907.861267 
	C426.941162,908.701660 444.579193,908.712646 462.200745,908.974121 
	C471.278687,909.108826 480.360260,908.999756 489.440186,908.999878 
	C519.934143,909.000122 550.428040,909.002380 580.921997,908.997498 
	C585.694946,908.996704 590.477905,909.152771 595.238647,908.901917 
	C603.494080,908.466858 611.727173,907.549927 619.984924,907.231628 
	C634.876709,906.657776 649.779968,906.383606 664.677551,905.953857 
	C665.491150,905.930420 666.291748,905.600220 667.106873,905.462646 
	C674.051514,904.290161 680.971985,902.927124 687.951599,902.021729 
	C694.908752,901.119263 701.943298,900.824890 708.911987,899.995544 
	C715.965637,899.155945 723.130005,898.572083 729.974487,896.817566 
	C738.901123,894.529358 747.848206,891.846558 756.245667,888.116028 
	C763.201355,885.026062 766.426819,876.793152 756.892029,872.552185 
	C750.807922,869.846008 744.085205,868.193970 737.478088,867.122925 
	C722.644043,864.718323 707.716431,862.869141 692.802795,860.984436 
	C678.705261,859.202881 664.608032,857.286316 650.453552,856.125854 
	C636.329041,854.968079 622.138367,854.539429 607.967957,854.040955 
	C593.606506,853.535767 579.233093,853.010864 564.867065,853.065857 
	C526.749939,853.211975 488.634430,853.726440 450.517487,853.976929 
	C424.782318,854.146118 399.048309,853.598022 373.405975,856.890991 
	C360.784576,858.511780 347.993622,858.764893 335.322357,860.057678 
	C321.683197,861.449158 308.054321,863.065308 294.496277,865.088135 
	C283.856415,866.675720 273.108368,868.326904 263.702759,874.191528 
	C262.259888,875.091125 260.693176,876.349487 260.019592,877.823792 
	C257.762207,882.764771 259.806671,886.681091 266.759094,888.679626 
	C279.288391,892.281433 291.871521,896.108093 304.701172,898.152466 
	C322.140839,900.931335 339.833160,902.124634 358.363403,903.998718 
z"/>
<path fill="#1B222F" opacity="1.000000" stroke="none" 
	d="
M365.109375,445.038483 
	C382.739563,445.193451 400.559509,443.758759 417.960327,445.835571 
	C453.795105,450.112457 474.388367,480.148438 474.910492,512.527466 
	C475.393219,542.463684 464.041809,565.516174 436.568604,579.313904 
	C427.791321,583.722046 418.343079,585.604858 408.579407,585.717346 
	C395.090454,585.872803 381.599060,585.843018 368.108917,585.810913 
	C367.118805,585.808594 366.130310,585.146545 365.097504,583.931519 
	C365.072418,537.060791 365.090912,491.049622 365.109375,445.038483 
z"/>
<path fill="#F4F4F4" opacity="1.000000" stroke="none" 
	d="
M364.760803,444.981812 
	C365.090912,491.049622 365.072418,537.060791 364.962921,583.532227 
	C360.631012,584.592773 360.980988,581.738159 360.984222,578.970520 
	C361.012939,554.351318 361.000122,529.732178 361.000092,505.112976 
	C361.000061,486.482239 361.000793,467.851501 361.001221,449.220764 
	C361.001251,447.423187 361.001221,445.625610 361.001221,443.163208 
	C362.544342,443.960266 363.478271,444.442688 364.760803,444.981812 
z"/>
<path fill="#E4E4E4" opacity="1.000000" stroke="none" 
	d="
M357.890259,903.998352 
	C339.833160,902.124634 322.140839,900.931335 304.701172,898.152466 
	C291.871521,896.108093 279.288391,892.281433 266.759094,888.679626 
	C259.806671,886.681091 257.762207,882.764771 260.019592,877.823792 
	C260.693176,876.349487 262.259888,875.091125 263.702759,874.191528 
	C273.108368,868.326904 283.856415,866.675720 294.496277,865.088135 
	C308.054321,863.065308 321.683197,861.449158 335.322357,860.057678 
	C347.993622,858.764893 360.784576,858.511780 373.405975,856.890991 
	C399.048309,853.598022 424.782318,854.146118 450.517487,853.976929 
	C488.634430,853.726440 526.749939,853.211975 564.867065,853.065857 
	C579.233093,853.010864 593.606506,853.535767 607.967957,854.040955 
	C622.138367,854.539429 636.329041,854.968079 650.453552,856.125854 
	C664.608032,857.286316 678.705261,859.202881 692.802795,860.984436 
	C707.716431,862.869141 722.644043,864.718323 737.478088,867.122925 
	C744.085205,868.193970 750.807922,869.846008 756.892029,872.552185 
	C766.426819,876.793152 763.201355,885.026062 756.245667,888.116028 
	C747.848206,891.846558 738.901123,894.529358 729.974487,896.817566 
	C723.130005,898.572083 715.965637,899.155945 708.911987,899.995544 
	C701.943298,900.824890 694.908752,901.119263 687.951599,902.021729 
	C680.971985,902.927124 674.051514,904.290161 667.106873,905.462646 
	C666.291748,905.600220 665.491150,905.930420 664.677551,905.953857 
	C649.779968,906.383606 634.876709,906.657776 619.984924,907.231628 
	C611.727173,907.549927 603.494080,908.466858 595.238647,908.901917 
	C590.477905,909.152771 585.694946,908.996704 580.921997,908.997498 
	C550.428040,909.002380 519.934143,909.000122 489.440186,908.999878 
	C480.360260,908.999756 471.278687,909.108826 462.200745,908.974121 
	C444.579193,908.712646 426.941162,908.701660 409.344635,907.861267 
	C392.328217,907.048584 375.355377,905.323181 357.890259,903.998352 
M665.744568,862.948975 
	C664.454590,862.643982 663.175049,862.131165 661.873047,862.065674 
	C647.384338,861.337219 632.892151,860.680481 618.401123,859.999146 
	C608.333069,859.525696 598.270020,858.887817 588.196777,858.598389 
	C566.606567,857.977905 545.013306,857.401367 523.417114,857.091309 
	C515.546936,856.978394 507.667816,857.787659 499.787994,857.976501 
	C482.723633,858.385315 465.654602,858.599670 448.590393,859.013428 
	C423.550354,859.620544 398.508514,860.206909 373.476654,861.069580 
	C364.926025,861.364380 356.370209,862.200745 347.875061,863.258057 
	C334.108032,864.971497 320.327179,866.722473 306.674042,869.144531 
	C298.979980,870.509399 290.730927,871.160889 284.846405,877.617188 
	C282.403442,880.297607 281.991516,882.778809 285.659882,884.298706 
	C293.127594,887.392822 300.546906,890.877136 308.324646,892.897705 
	C330.710938,898.712952 353.900513,898.468445 376.735382,900.855225 
	C393.360168,902.592957 410.114105,903.255066 426.829346,903.928650 
	C449.729767,904.851440 472.646149,905.789551 495.559235,905.886597 
	C525.782776,906.014587 556.010559,905.391113 586.234741,904.967102 
	C596.192993,904.827515 606.155396,904.472961 616.099060,903.916321 
	C630.976868,903.083557 645.848206,902.095703 660.705627,900.956360 
	C668.936951,900.325195 677.151367,899.384766 685.342041,898.338318 
	C692.714661,897.396423 700.181458,896.663879 707.359436,894.856445 
	C716.927429,892.447205 726.318420,889.264038 735.632629,885.979919 
	C737.396729,885.357910 739.607666,882.644653 739.510559,881.022034 
	C739.408081,879.309814 737.073853,876.858887 735.223816,876.268677 
	C725.195740,873.069397 715.160217,869.565430 704.851196,867.658875 
	C692.259949,865.330322 679.395264,864.479980 665.744568,862.948975 
z"/>
<path fill="#DFE0E0" opacity="1.000000" stroke="none" 
	d="
M666.196716,862.969727 
	C679.395264,864.479980 692.259949,865.330322 704.851196,867.658875 
	C715.160217,869.565430 725.195740,873.069397 735.223816,876.268677 
	C737.073853,876.858887 739.408081,879.309814 739.510559,881.022034 
	C739.607666,882.644653 737.396729,885.357910 735.632629,885.979919 
	C726.318420,889.264038 716.927429,892.447205 707.359436,894.856445 
	C700.181458,896.663879 692.714661,897.396423 685.342041,898.338318 
	C677.151367,899.384766 668.936951,900.325195 660.705627,900.956360 
	C645.848206,902.095703 630.976868,903.083557 616.099060,903.916321 
	C606.155396,904.472961 596.192993,904.827515 586.234741,904.967102 
	C556.010559,905.391113 525.782776,906.014587 495.559235,905.886597 
	C472.646149,905.789551 449.729767,904.851440 426.829346,903.928650 
	C410.114105,903.255066 393.360168,902.592957 376.735382,900.855225 
	C353.900513,898.468445 330.710938,898.712952 308.324646,892.897705 
	C300.546906,890.877136 293.127594,887.392822 285.659882,884.298706 
	C281.991516,882.778809 282.403442,880.297607 284.846405,877.617188 
	C290.730927,871.160889 298.979980,870.509399 306.674042,869.144531 
	C320.327179,866.722473 334.108032,864.971497 347.875061,863.258057 
	C356.370209,862.200745 364.926025,861.364380 373.476654,861.069580 
	C398.508514,860.206909 423.550354,859.620544 448.590393,859.013428 
	C465.654602,858.599670 482.723633,858.385315 499.787994,857.976501 
	C507.667816,857.787659 515.546936,856.978394 523.417114,857.091309 
	C545.013306,857.401367 566.606567,857.977905 588.196777,858.598389 
	C598.270020,858.887817 608.333069,859.525696 618.401123,859.999146 
	C632.892151,860.680481 647.384338,861.337219 661.873047,862.065674 
	C663.175049,862.131165 664.454590,862.643982 666.196716,862.969727 
M501.589661,860.999878 
	C494.180145,860.999939 486.769196,860.906555 479.361359,861.018372 
	C461.078888,861.294250 442.788544,861.406799 424.518799,862.067749 
	C405.534332,862.754639 386.566650,863.945129 367.600037,865.058838 
	C362.830872,865.338867 358.085510,866.106201 353.344086,866.758118 
	C345.814697,867.793396 338.209595,868.511841 330.798676,870.114197 
	C322.101135,871.994873 313.480377,874.381165 305.019684,877.140930 
	C300.985596,878.456848 300.572357,881.749146 303.993500,884.276733 
	C306.845154,886.383606 310.326935,888.231018 313.769440,888.841919 
	C328.720459,891.494995 343.703033,894.152710 358.781860,895.853210 
	C374.338928,897.607605 390.009613,898.452148 405.650848,899.337280 
	C424.769470,900.419250 443.907684,901.163269 463.040314,901.985596 
	C472.655945,902.398865 482.277893,902.935425 491.897247,902.940857 
	C519.807434,902.956543 547.719482,902.867859 575.627319,902.535645 
	C587.056946,902.399658 598.481384,901.600159 609.901611,900.981201 
	C621.147217,900.371765 632.385620,899.626587 643.624817,898.904785 
	C648.375793,898.599731 653.146545,898.404907 657.863525,897.806946 
	C669.645264,896.313354 681.490845,895.082764 693.136353,892.840515 
	C700.983154,891.329712 708.587097,888.432068 716.175293,885.796448 
	C717.943848,885.182129 720.702698,882.461670 720.428711,881.831970 
	C719.524536,879.754761 717.763672,877.543457 715.754211,876.538269 
	C704.455200,870.886414 692.059937,869.406860 679.733154,868.068726 
	C664.778748,866.445374 649.785278,865.130676 634.784973,863.995239 
	C619.046509,862.803955 603.289673,861.387451 587.523560,861.130310 
	C559.211731,860.668457 530.886902,861.000000 501.589661,860.999878 
z"/>
<path fill="#DADADA" opacity="1.000000" stroke="none" 
	d="
M502.078552,860.999939 
	C530.886902,861.000000 559.211731,860.668457 587.523560,861.130310 
	C603.289673,861.387451 619.046509,862.803955 634.784973,863.995239 
	C649.785278,865.130676 664.778748,866.445374 679.733154,868.068726 
	C692.059937,869.406860 704.455200,870.886414 715.754211,876.538269 
	C717.763672,877.543457 719.524536,879.754761 720.428711,881.831970 
	C720.702698,882.461670 717.943848,885.182129 716.175293,885.796448 
	C708.587097,888.432068 700.983154,891.329712 693.136353,892.840515 
	C681.490845,895.082764 669.645264,896.313354 657.863525,897.806946 
	C653.146545,898.404907 648.375793,898.599731 643.624817,898.904785 
	C632.385620,899.626587 621.147217,900.371765 609.901611,900.981201 
	C598.481384,901.600159 587.056946,902.399658 575.627319,902.535645 
	C547.719482,902.867859 519.807434,902.956543 491.897247,902.940857 
	C482.277893,902.935425 472.655945,902.398865 463.040314,901.985596 
	C443.907684,901.163269 424.769470,900.419250 405.650848,899.337280 
	C390.009613,898.452148 374.338928,897.607605 358.781860,895.853210 
	C343.703033,894.152710 328.720459,891.494995 313.769440,888.841919 
	C310.326935,888.231018 306.845154,886.383606 303.993500,884.276733 
	C300.572357,881.749146 300.985596,878.456848 305.019684,877.140930 
	C313.480377,874.381165 322.101135,871.994873 330.798676,870.114197 
	C338.209595,868.511841 345.814697,867.793396 353.344086,866.758118 
	C358.085510,866.106201 362.830872,865.338867 367.600037,865.058838 
	C386.566650,863.945129 405.534332,862.754639 424.518799,862.067749 
	C442.788544,861.406799 461.078888,861.294250 479.361359,861.018372 
	C486.769196,860.906555 494.180145,860.999939 502.078552,860.999939 
M615.040344,897.827759 
	C624.580933,896.885620 634.145203,896.134521 643.656799,894.957947 
	C659.232910,893.031311 674.814209,891.073975 690.308289,888.597778 
	C695.234497,887.810425 700.110901,885.612793 702.218567,879.466614 
	C697.112732,877.562012 692.467041,875.177490 687.537903,874.142883 
	C680.122070,872.586487 672.530151,871.749207 664.973877,871.004639 
	C643.578430,868.896301 622.189941,866.594421 600.746460,865.139160 
	C585.581116,864.109863 570.329285,864.382935 555.118591,863.981628 
	C546.325378,863.749634 537.535034,863.012207 528.746948,863.066589 
	C510.180206,863.181335 491.614929,863.627136 473.050659,864.013916 
	C460.650787,864.272217 448.241333,864.419861 435.857971,865.047485 
	C413.225250,866.194519 390.549408,867.047668 368.008331,869.229980 
	C355.093628,870.480347 342.377777,873.966614 329.652863,876.807007 
	C327.648804,877.254272 326.072662,879.618774 324.298645,881.096802 
	C326.159851,882.728943 327.782288,885.255737 329.926331,885.827881 
	C336.766815,887.653137 343.749207,889.158630 350.770355,890.054382 
	C370.439331,892.563782 390.109436,895.290344 409.864838,896.835144 
	C431.515717,898.528137 453.254608,899.241821 474.969513,899.926758 
	C494.802002,900.552307 514.655273,900.857971 534.496399,900.750977 
	C547.417236,900.681335 560.328491,899.504028 573.251770,899.036987 
	C586.870178,898.544800 600.497864,898.307312 615.040344,897.827759 
z"/>
<path fill="#D5D6D6" opacity="1.000000" stroke="none" 
	d="
M614.580933,897.893188 
	C600.497864,898.307312 586.870178,898.544800 573.251770,899.036987 
	C560.328491,899.504028 547.417236,900.681335 534.496399,900.750977 
	C514.655273,900.857971 494.802002,900.552307 474.969513,899.926758 
	C453.254608,899.241821 431.515717,898.528137 409.864838,896.835144 
	C390.109436,895.290344 370.439331,892.563782 350.770355,890.054382 
	C343.749207,889.158630 336.766815,887.653137 329.926331,885.827881 
	C327.782288,885.255737 326.159851,882.728943 324.298645,881.096802 
	C326.072662,879.618774 327.648804,877.254272 329.652863,876.807007 
	C342.377777,873.966614 355.093628,870.480347 368.008331,869.229980 
	C390.549408,867.047668 413.225250,866.194519 435.857971,865.047485 
	C448.241333,864.419861 460.650787,864.272217 473.050659,864.013916 
	C491.614929,863.627136 510.180206,863.181335 528.746948,863.066589 
	C537.535034,863.012207 546.325378,863.749634 555.118591,863.981628 
	C570.329285,864.382935 585.581116,864.109863 600.746460,865.139160 
	C622.189941,866.594421 643.578430,868.896301 664.973877,871.004639 
	C672.530151,871.749207 680.122070,872.586487 687.537903,874.142883 
	C692.467041,875.177490 697.112732,877.562012 702.218567,879.466614 
	C700.110901,885.612793 695.234497,887.810425 690.308289,888.597778 
	C674.814209,891.073975 659.232910,893.031311 643.656799,894.957947 
	C634.145203,896.134521 624.580933,896.885620 614.580933,897.893188 
M369.873291,889.814575 
	C389.139465,891.539062 408.386597,893.532104 427.677887,894.902954 
	C443.051239,895.995239 458.473877,896.474426 473.883026,896.958923 
	C490.155518,897.470642 506.437683,897.910889 522.716064,897.926941 
	C537.162598,897.941223 551.609619,897.329529 566.056580,896.998535 
	C568.659119,896.938904 571.268616,897.001343 573.864014,896.835815 
	C588.228821,895.919800 602.602478,895.103699 616.949463,893.957092 
	C631.372437,892.804504 645.796997,891.551086 660.160828,889.837891 
	C666.025574,889.138367 671.797729,887.322815 677.465576,885.547302 
	C678.923218,885.090698 680.630127,882.909302 680.718933,881.429932 
	C680.785645,880.319275 678.635010,878.470459 677.138306,877.991333 
	C673.537842,876.838684 669.744263,876.284912 666.023804,875.512634 
	C658.748474,874.002502 651.532898,871.831848 644.179688,871.147095 
	C628.529114,869.689758 612.816101,868.793945 597.110168,868.071899 
	C583.169556,867.431030 569.202576,867.383728 555.249939,866.981628 
	C547.188354,866.749268 539.129761,866.008362 531.073792,866.064087 
	C510.991821,866.203003 490.911987,866.657898 470.831543,867.002563 
	C452.054291,867.324890 433.277374,867.668030 414.500336,868.005310 
	C413.835297,868.017212 413.168549,868.038574 412.506592,868.099243 
	C398.353577,869.395935 384.207062,870.768860 370.046448,871.976074 
	C360.579742,872.783264 351.790527,875.623718 342.604309,880.090759 
	C345.446320,881.946289 347.456299,883.962402 349.856628,884.689087 
	C356.165924,886.599182 362.645111,887.947937 369.873291,889.814575 
z"/>
<path fill="#D2D2D2" opacity="1.000000" stroke="none" 
	d="
M369.464966,889.667419 
	C362.645111,887.947937 356.165924,886.599182 349.856628,884.689087 
	C347.456299,883.962402 345.446320,881.946289 342.604309,880.090759 
	C351.790527,875.623718 360.579742,872.783264 370.046448,871.976074 
	C384.207062,870.768860 398.353577,869.395935 412.506592,868.099243 
	C413.168549,868.038574 413.835297,868.017212 414.500336,868.005310 
	C433.277374,867.668030 452.054291,867.324890 470.831543,867.002563 
	C490.911987,866.657898 510.991821,866.203003 531.073792,866.064087 
	C539.129761,866.008362 547.188354,866.749268 555.249939,866.981628 
	C569.202576,867.383728 583.169556,867.431030 597.110168,868.071899 
	C612.816101,868.793945 628.529114,869.689758 644.179688,871.147095 
	C651.532898,871.831848 658.748474,874.002502 666.023804,875.512634 
	C669.744263,876.284912 673.537842,876.838684 677.138306,877.991333 
	C678.635010,878.470459 680.785645,880.319275 680.718933,881.429932 
	C680.630127,882.909302 678.923218,885.090698 677.465576,885.547302 
	C671.797729,887.322815 666.025574,889.138367 660.160828,889.837891 
	C645.796997,891.551086 631.372437,892.804504 616.949463,893.957092 
	C602.602478,895.103699 588.228821,895.919800 573.864014,896.835815 
	C571.268616,897.001343 568.659119,896.938904 566.056580,896.998535 
	C551.609619,897.329529 537.162598,897.941223 522.716064,897.926941 
	C506.437683,897.910889 490.155518,897.470642 473.883026,896.958923 
	C458.473877,896.474426 443.051239,895.995239 427.677887,894.902954 
	C408.386597,893.532104 389.139465,891.539062 369.464966,889.667419 
M567.325806,869.002441 
	C549.869202,868.669128 532.413513,868.155334 514.955750,868.071777 
	C504.872101,868.023499 494.785858,868.692566 484.699524,868.996277 
	C472.910156,869.351196 461.112030,870.093201 449.330841,869.892883 
	C428.732880,869.542725 408.309113,871.154663 387.955811,874.032776 
	C381.585754,874.933594 375.216614,875.937134 368.936829,877.305603 
	C367.534332,877.611206 366.509247,879.648987 365.310364,880.889221 
	C366.451141,881.945068 367.434174,883.319885 368.770355,883.980652 
	C370.681702,884.926025 372.809662,885.672424 374.917236,885.943909 
	C391.141418,888.033508 407.337738,890.569641 423.630615,891.837524 
	C444.311829,893.446899 465.070221,894.678589 485.805267,894.846802 
	C522.525085,895.144714 559.259521,895.820801 595.933472,892.195557 
	C611.060852,890.700195 626.439575,891.619202 641.362793,887.943176 
	C647.595825,886.407715 654.554810,886.833557 661.206482,880.701538 
	C653.777832,878.595032 647.639648,875.866943 641.291626,875.229553 
	C616.988892,872.789551 592.618713,871.021423 567.325806,869.002441 
z"/>
<path fill="#CBCBCB" opacity="1.000000" stroke="none" 
	d="
M567.799744,869.002441 
	C592.618713,871.021423 616.988892,872.789551 641.291626,875.229553 
	C647.639648,875.866943 653.777832,878.595032 661.206482,880.701538 
	C654.554810,886.833557 647.595825,886.407715 641.362793,887.943176 
	C626.439575,891.619202 611.060852,890.700195 595.933472,892.195557 
	C559.259521,895.820801 522.525085,895.144714 485.805267,894.846802 
	C465.070221,894.678589 444.311829,893.446899 423.630615,891.837524 
	C407.337738,890.569641 391.141418,888.033508 374.917236,885.943909 
	C372.809662,885.672424 370.681702,884.926025 368.770355,883.980652 
	C367.434174,883.319885 366.451141,881.945068 365.310364,880.889221 
	C366.509247,879.648987 367.534332,877.611206 368.936829,877.305603 
	C375.216614,875.937134 381.585754,874.933594 387.955811,874.032776 
	C408.309113,871.154663 428.732880,869.542725 449.330841,869.892883 
	C461.112030,870.093201 472.910156,869.351196 484.699524,868.996277 
	C494.785858,868.692566 504.872101,868.023499 514.955750,868.071777 
	C532.413513,868.155334 549.869202,868.669128 567.799744,869.002441 
z"/>
</svg>